{"title":"The.Witches.of.Oz-2011.AC3-XviD-DVDRip-CC","uid":6806394,"size":2307176356,"categoryP":"video","categoryS":"movies","magnet":"?xt=urn:btih:07ab77d31bf53758d89b40d0a142648773ee2f86&amp;dn=The.Witches.of.Oz-2011.AC3-XviD-DVDRip-CC&amp;tr=udp%3A%2F%2Ftracker.openbittorrent.com%3A80&amp;tr=udp%3A%2F%2Fopen.demonii.com%3A1337&amp;tr=udp%3A%2F%2Ftracker.coppersurfer.tk%3A6969&amp;tr=udp%3A%2F%2Fexodus.desync.com%3A6969","seeders":1,"leechers":0,"uploader":"Caveman44","files":-1,"time":1320878240,"description":"[img]http://img842.imageshack.us/img842/9387/witchesofoz2011.jpg[/img]\n &lt;a href=&quot;\nhttp://www.imdb.com/title/tt1592287/&quot; rel=&quot;nofollow&quot; target=&quot;_NEW&quot;&gt;\nhttp://www.imdb.com/title/tt1592287/&lt;/a&gt;\n\nSource: The Witches of Oz (2011) PAL Retail DD5.1 NL Subs EE-Rel.NL\n\nSubs: Dutch\n\nSample and Screens included.\n\nGeneral\nComplete name                    : The.Witches.of.Oz-2011.AC3-XViD-DVDRip-CC\\Part 1.avi\nFormat                           : AVI\nFormat/Info                      : Audio Video Interleave\nFile size                        : 1.07 GiB\nDuration                         : 1h 25mn\nOverall bit rate                 : 1 793 Kbps\nWriting application              : VirtualDubMod 1.5.4.1 (build 2178/release)\nWriting library                  : VirtualDubMod build 2178/release\n\nVideo\nID                               : 0\nFormat                           : MPEG-4 Visual\nFormat profile                   : Simple@L3\nFormat settings, BVOP            : No\nFormat settings, QPel            : No\nFormat settings, GMC             : No warppoints\nFormat settings, Matrix          : Default (H.263)\nCodec ID                         : XVID\nCodec ID/Hint                    : XviD\nDuration                         : 1h 25mn\nBit rate                         : 1 335 Kbps\nWidth                            : 720 pixels\nHeight                           : 304 pixels\nDisplay aspect ratio             : 2.35:1\nFrame rate                       : 25.000 fps\nResolution                       : 8 bits\nColorimetry                      : 4:2:0\nScan type                        : Progressive\nBits/(Pixel*Frame)               : 0.244\nStream size                      : 814 MiB (74%)\nWriting library                  : XviD 1.1.2 (UTC 2006-11-01)\n\nAudio\nID                               : 1\nFormat                           : AC-3\nFormat/Info                      : Audio Coding 3\nCodec ID                         : 2000\nDuration                         : 1h 25mn\nBit rate mode                    : Constant\nBit rate                         : 448 Kbps\nChannel(s)                       : 6 channels\nChannel positions                : Front: L C R, Surround: L R, LFE\nSampling rate                    : 48.0 KHz\nStream size                      : 273 MiB (25%)\nAlignment                        : Split accross interleaves\nInterleave, duration             : 40 ms (1.00 video frame)\nInterleave, preload duration     : 500 ms\n\n[img]http://img714.imageshack.us/img714/3944/thewitchesofoz2011ac3xv.jpg[/img]","torrent":{"xt":"urn:btih:07ab77d31bf53758d89b40d0a142648773ee2f86","amp;dn":"The.Witches.of.Oz-2011.AC3-XviD-DVDRip-CC","amp;tr":["udp%3A%2F%2Ftracker.openbittorrent.com%3A80","udp%3A%2F%2Fopen.demonii.com%3A1337","udp%3A%2F%2Ftracker.coppersurfer.tk%3A6969","udp%3A%2F%2Fexodus.desync.com%3A6969"],"infoHash":"07ab77d31bf53758d89b40d0a142648773ee2f86","infoHashBuffer":{"type":"Buffer","data":[7,171,119,211,27,245,55,88,216,155,64,208,161,66,100,135,115,238,47,134]},"announce":[],"urlList":[]}}